<?xml version="1.0" encoding="utf-8"?>
<!-- Generator: Adobe Illustrator 21.0.0, SVG Export Plug-In . SVG Version: 6.00 Build 0)  -->
<svg version="1.1" id="Calque_1" xmlns="http://www.w3.org/2000/svg" xmlns:xlink="http://www.w3.org/1999/xlink" x="0px" y="0px"
	 viewBox="0 0 1000 1000" style="enable-background:new 0 0 1000 1000;" xml:space="preserve">
<style type="text/css">
	.st0{fill:#FFFFFF;}
</style>
<g>
	<path class="st0" d="M990,732.2H10V605.4h980V732.2L990,732.2z M77.4,854.7v-83.2H10v83.2H77.4L77.4,854.7z M990,854.7v-83.2h-67.4
		v83.2H990L990,854.7z M504.7,145.3h-6.4c-166.7,0.8-316.9,32.4-437.4,89.1v205c30-21.4,65-40.2,103.9-56.1l-8-50.5
		c41.7-85.2,209.3-111.3,272.4-42.3l5.5,35.3c21.1-1.3,42.5-2,64.3-2.2h5.5c20.5,0,40.6,0.6,60.4,1.7l5.5-34.8
		c63.1-69,230.7-43,272.4,42.3l-7.7,49c38.8,16,73.6,35,103.7,56.9V232.5C819.7,175.9,671.6,145.3,504.7,145.3L504.7,145.3z
		 M22.1,550.3c69-105.3,256.3-174,477.3-175.1c1.8,0,3.5,0,5.3,0c219.7,0,400.7,67,473.2,175.4l9.8,14.6H12.3L22.1,550.3z"/>
</g>
</svg>
