<?xml version="1.0" encoding="utf-8"?>
<!-- Generator: Adobe Illustrator 21.0.0, SVG Export Plug-In . SVG Version: 6.00 Build 0)  -->
<svg version="1.1" id="Calque_1" xmlns="http://www.w3.org/2000/svg" xmlns:xlink="http://www.w3.org/1999/xlink" x="0px" y="0px"
	 viewBox="0 0 1000 1000" style="enable-background:new 0 0 1000 1000;" xml:space="preserve">
<style type="text/css">
	.st0{fill:#FFFFFF;}
</style>
<g>
	<path class="st0" d="M500,238.7c-72.2,0-147.1,60.2-147.1,114.3v81.7c0,35.7,16.3,107.9,62,144.6L271.3,647
		c0,0-32.7,14.5-32.7,32.6v49c0,18.1,14.6,32.7,32.7,32.7h457.3c18,0,32.7-14.6,32.7-32.7v-49c0-19.2-32.7-32.6-32.7-32.6
		l-142.2-67.5c45.3-35.6,60.6-105.6,60.6-144.9V353C647,298.9,572.1,238.7,500,238.7"/>
	<path class="st0" d="M232.6,615.3c29-22.3,38.8-66,38.8-90.5v-51c0-33.8-47.9-71.5-94.1-71.5s-94.2,37.6-94.2,71.5l0,0v51
		c0,22.3,10.4,67.4,39.7,90.4L31,657.5c0,0-20.9,9.1-20.9,20.4v30.7c0,11.3,9.4,20.4,20.9,20.4h146.3"/>
	<path class="st0" d="M767.4,615.3c-29-22.3-38.8-66-38.8-90.5v-51c0-33.8,47.9-71.5,94.1-71.5c46.2,0,94.2,37.6,94.2,71.5l0,0v51
		c0,22.3-10.4,67.4-39.7,90.4l91.8,42.3c0,0,20.9,9.1,20.9,20.4v30.7c0,11.3-9.4,20.4-20.9,20.4H822.8"/>
</g>
</svg>
