<?xml version="1.0" encoding="utf-8"?>
<!-- Generator: Adobe Illustrator 21.0.0, SVG Export Plug-In . SVG Version: 6.00 Build 0)  -->
<svg version="1.1" id="Calque_1" xmlns="http://www.w3.org/2000/svg" xmlns:xlink="http://www.w3.org/1999/xlink" x="0px" y="0px"
	 viewBox="0 0 1000 1000" style="enable-background:new 0 0 1000 1000;" xml:space="preserve">
<style type="text/css">
	.st0{fill:#FFFFFF;}
</style>
<g>
	<g transform="translate(0.000000,384.000000) scale(0.100000,-0.100000)">
		<path class="st0" d="M568.8,2494.4c-89.9-23-254.5-118.6-306.1-179.9c-26.8-32.5-70.8-101.4-99.5-155
			c-47.8-91.8-49.7-114.8-57.4-413.3l-5.7-315.7L2551,146.8L5000-1139L7449,146.8l2451,1283.8l-5.7,315.7l-5.8,315.7l-65.1,120.5
			c-72.7,133.9-132,191.3-277.4,267.9l-97.6,51.7l-4410.2,3.8C2612.2,2505.9,601.3,2502.1,568.8,2494.4z"/>
		<path class="st0" d="M105.7-2160.7l5.7-2225.2l51.7-97.6c76.5-145.4,133.9-204.7,267.9-277.4l120.5-65H5000h4448.5l97.6,51.7
			c145.4,76.5,204.7,133.9,277.4,267.9l65.1,120.5l5.8,2225.2l3.8,2227.1L9702.9-38.8c-415.2-221.9-3901.3-2041.5-4104.1-2144.8
			c-269.8-133.9-470.7-202.8-598.9-202.8c-128.2,0-329.1,68.9-598.9,202.8C4198.3-2080.3,712.3-260.7,297.1-38.8L101.9,66.4
			L105.7-2160.7z"/>
	</g>
</g>
</svg>
