<?xml version="1.0" encoding="utf-8"?>
<!-- Generator: Adobe Illustrator 21.0.0, SVG Export Plug-In . SVG Version: 6.00 Build 0)  -->
<svg version="1.1" id="Calque_1" xmlns="http://www.w3.org/2000/svg" xmlns:xlink="http://www.w3.org/1999/xlink" x="0px" y="0px"
	 viewBox="0 0 1000 1000" style="enable-background:new 0 0 1000 1000;" xml:space="preserve">
<style type="text/css">
	.st0{fill:#FFFFFF;}
</style>
<g>
	<g transform="translate(0.000000,512.000000) scale(0.100000,-0.100000)">
		<path class="st0" d="M7377.2,5001.8c-551.5-70.8-1032.2-287.3-1344.4-605.2c-547.7-557.3-480.7-1285,170.4-1828.9
			c80.4-68.9,97.7-180,53.6-331.3c-40.2-141.7-174.3-287.3-340.9-369.6l-118.7-61.3h153.2c377.3,0,679.8,134.1,794.7,348.5l44,84.3
			l134.1-44.1c310.2-101.5,496-128.3,903.9-128.3c425.1,0,610.9,28.7,942.2,143.6c844.5,294.9,1286.9,963.3,1080.1,1625.9
			C9696.2,4325.7,9160,4752.7,8478.2,4927C8124.1,5017.2,7716.2,5045.9,7377.2,5001.8z"/>
		<path class="st0" d="M3403.5,4032.8c-214.5-44-461.5-187.7-605.2-346.6c-114.9-130.2-235.5-362-266.2-513.2
			c-34.5-160.9-15.3-469.2,34.5-609c120.7-329.4,381.1-586,712.4-702.8c103.4-36.4,164.7-44,354.3-44c199.2,0,247,7.7,358.1,49.8
			c379.2,143.6,647.3,440.5,735.4,812c38.3,168.5,26.8,429-28.7,603.2c-109.2,342.8-425.1,643.5-779.4,735.4
			C3815.2,4044.3,3499.2,4053.9,3403.5,4032.8z"/>
		<path class="st0" d="M2880.7,1631.3c-538.1-70.8-978.6-467.3-1114.6-1001.6c-36.4-141.7-38.3-214.5-38.3-1049.5V-1316h-469.2
			H789.4v101.5c0,440.5,113,1141.4,241.3,1511c103.4,298.7,168.5,415.6,237.5,430.9c40.2,7.7,107.2,65.1,226,195.3
			c212.6,231.7,233.6,262.4,233.6,346.6c0,158.9-178.1,254.7-308.3,164.7c-70.8-47.9-379.2-419.4-390.7-467.3
			c-5.7-30.6-3.8-74.7,5.7-101.5c15.3-36.4,3.8-74.7-57.5-197.2C781.7,277.3,661-266.6,613.1-965.5l-23-350.5h-245H100v-306.4
			v-306.4h3533.3h3533.3v306.4v306.4H6908h-258.5v149.4c0,630.1-168.5,1440.1-392.6,1882.5c-38.3,72.8-46,111.1-36.4,168.5
			c15.3,95.8-1.9,124.5-210.7,361.9c-181.9,206.8-237.5,241.3-346.6,212.6c-151.3-42.1-189.6-206.8-78.5-339
			c206.8-249,314-356.2,388.8-388.8c68.9-28.7,88.1-51.7,145.5-174.3c181.9-383,304.5-974.8,333.2-1608.7l11.5-264.3h-461.5h-461.5
			l-5.7,934.5c-7.7,915.4-7.7,934.6-51.7,1066.7c-80.4,245.1-168.5,388.8-346.6,566.9c-249,249-503.6,363.9-873.3,390.7l-170.4,11.5
			l-182-223.8c-99.6-122.6-193.4-239.4-206.8-258.5c-21.1-30.6,5.7-178.1,180-986.3l204.9-947.9l-227.9-229.8l-227.9-227.9
			l-231.7,233.6L3169.8-751l206.8,946l204.9,947.9l-204.9,249c-204.9,250.9-204.9,250.9-289.2,252.8
			C3039.6,1646.7,2945.8,1640.9,2880.7,1631.3z M2704.5-454.2V-1316h-114.9h-114.9v861.8v861.8h114.9h114.9V-454.2z M4772.7-454.2
			V-1316h-114.9h-114.9v861.8v861.8h114.9h114.9V-454.2z"/>
		<path class="st0" d="M866-3479.9v-1302.2h2767.3h2767.3v1302.2v1302.2H3633.3H866V-3479.9z"/>
	</g>
</g>
</svg>
