<?xml version="1.0" encoding="utf-8"?>
<!-- Generator: Adobe Illustrator 21.0.0, SVG Export Plug-In . SVG Version: 6.00 Build 0)  -->
<svg version="1.1" id="Layer_1" xmlns="http://www.w3.org/2000/svg" xmlns:xlink="http://www.w3.org/1999/xlink" x="0px" y="0px"
	 viewBox="0 0 1000 1000" style="enable-background:new 0 0 1000 1000;" xml:space="preserve">
<style type="text/css">
	.st0{fill:#FDFEFF;}
</style>
<g>
	<path class="st0" d="M813.3,709.7c11-0.1,22.1-4.2,30.6-12.6c8.4-8.5,12.6-19.5,12.6-30.6c0-11-4.2-22.1-12.5-30.5L608.7,409.3
		h-73.8L489,452.7c-17.7,17.6-41.3,27.4-66.2,27.4c-8.5,0-16.8-1.2-24.7-3.5c-14.4-3.9-27.7-11.2-38.8-21.6
		c-0.5-0.5-1.4-1.3-2.5-2.3c-3.3-3.3-6.1-6.8-8.7-10.3c-3.5-4.7-6.5-9.7-9.1-14.8c-6.3-13-9.5-27.1-9.5-41.3
		c0-23.9,9.1-47.8,27.6-66.3l17.4-15.3L243.7,174.3c-11.4-11.4-26.2-17-41.1-17c-15,0-29.8,5.7-41.1,17.1L10,325.8l209.9,209.8
		l24.3-24.2c8.7-8.7,19.1-15.2,30.4-19.5c9-3.3,18.7-5.2,28.4-5.4c0.2,0,0.8-0.1,1.7-0.1c6.7,0,13.3,0.8,19.6,2.3
		c14.6,3.4,28.1,10.6,39.2,21.2c0.3,0.3,0.8,0.7,1.6,1.6c5.9,5.8,10.7,12.3,14.6,19.3c3.5-0.5,6.9-0.7,10.4-0.7
		c22.8,0,44.3,9,60.5,25.1c14.6,14.6,22.9,33.3,24.6,52.6c11.9,4.2,22.7,11,31.9,20.1c16.5,16.6,24.9,38.4,24.9,60.2
		c0,1.9,0,3.8-0.2,5.6c4.1,2.4,8.1,5.2,11.8,8.3c20.1,16.8,30.5,41.1,30.5,65.6c0,19.4-6.6,38.8-19.8,54.8l-14.8,18.7l9.5,9.7
		c8.5,8.5,19.5,12.7,30.6,12.7s22.1-4.2,30.6-12.7c8.4-8.4,12.4-19.2,12.4-30.2c0-4.4-0.7-9-2-13.3l-6.3-20.4l22.2,22.1
		c8.4,8.5,19.5,12.6,30.6,12.6s22.1-4.1,30.6-12.6c8.4-8.4,12.5-19.3,12.5-30.3c0-4.8-0.8-9.6-2.4-14.2l-5.8-17.2l14.2,11.4
		c8,6.5,17.5,9.7,27,9.7c11,0,22.1-4.2,30.6-12.6c8.4-8.4,12.6-19.5,12.6-30.5c0-5.4-1-10.7-2.9-15.8l-5.6-14.5l13.3,8
		C797.9,707.5,805.6,709.7,813.3,709.7z"/>
	<path class="st0" d="M403.3,817.8c0,12.3,5.2,24.4,15.4,33.1c8.2,6.8,17.9,10.1,27.7,10.1c11.7,0,23.2-4.8,31.7-14.2
		c1.1-1.1,1.4-1.2,1.4-1.3l8.9-10.5l10.2-12.2l23.1-27.5c6.8-8.1,10.1-18,10.1-27.8c0-12.3-5.3-24.6-15.4-33.1l3.4-4l0,0l-3.4,4.2
		c-8.1-6.8-17.9-10.1-27.7-10.1c-1.5,0-3,0.1-4.5,0.1l-12.8,1.4l8.2-9.9c6.7-8.1,10.1-17.9,10.1-27.8c0-11-4.2-21.9-12.5-30.2
		c-8.4-8.4-19.4-12.6-30.4-12.6c-5,0-10,0.9-14.8,2.7l-15.3,5.4l9.1-13.3c5-7.3,7.4-15.8,7.4-24.4c0-11-4.2-22.1-12.6-30.5
		s-19.4-12.7-30.5-12.7c-11,0-22.1,4.2-30.6,12.6l-20.4,20.4l6.5-20.6c1.4-4.2,2.1-8.8,2.1-13.2c0-11.1-4.1-21.9-12.4-30.2
		c0-0.1-0.5-0.3-1.5-1.3c-8.4-7.5-18.7-11.5-29.1-11.5c-3.2,0-6.5,0.5-9.9,1.3c-7.6,1.8-14.8,5.5-20.8,11.4l-34.7,34.7l-10.8,10.8
		l-6.5,6.5c-1.2,1.2-2.5,2.8-3.9,4.7c-5.8,7.7-8.7,16.8-8.7,26.1c0,11,4.2,21.9,12.5,30.3c8.5,8.5,19.5,12.7,30.6,12.7
		c6.4,0,12.9-1.6,18.9-4.6l13.8-6.8l-6.8,14c-2.9,6-4.4,12.5-4.4,19.1c0.1,11,4.1,21.8,12.5,30.3c8.5,8.4,19.5,12.6,30.6,12.6
		c6.4,0,12.9-1.6,18.9-4.6l13.8-6.8l-6.8,13.8c-2.9,6.1-4.4,12.5-4.4,19.2c0,10.9,4.1,21.9,12.5,30.3c8.5,8.4,19.5,12.6,30.6,12.6
		c6.3,0,12.7-1.5,18.7-4.4l13.6-6.6l-6.7,13.7C404.7,804.9,403.3,811.4,403.3,817.8z"/>
	<path class="st0" d="M517.6,367h60.3h48l18,17.2l16.6,15.9l4.4,4.4l137,136.8l171.1-171c11.4-11.4,17-26.2,17-41.1
		s-5.7-29.8-17-41.1L821.6,136.6L721.4,236.7l-12.7,12.6l-15.5,15.6l-2.4-0.1c-2-0.1-3.1-0.5-3.7-0.5H503.6h-0.1h-7.3
		c-13.6,0-26.7,5.4-36.3,15.1l-52.1,52l-21.3,18.7c-9.9,10-14.8,23-14.8,36c0,4.1,0.5,8.2,1.4,12.1c1.2,5.2,3.3,10,6,14.6
		c2.2,3.5,4.5,6.8,7.4,9.7c0,0.1,0.5,0.3,1.8,1.4c9.9,9.1,22.1,13.6,34.5,13.7c1.3,0,3-0.3,5.2-0.5c11.4-1.2,22.5-5.9,31.2-14.6
		L517.6,367z"/>
</g>
</svg>
