<?xml version="1.0" encoding="utf-8"?>
<!-- Generator: Adobe Illustrator 21.1.0, SVG Export Plug-In . SVG Version: 6.00 Build 0)  -->
<svg version="1.1" id="Layer_1" xmlns="http://www.w3.org/2000/svg" xmlns:xlink="http://www.w3.org/1999/xlink" x="0px" y="0px"
	 viewBox="0 0 1000 1000" style="enable-background:new 0 0 1000 1000;" xml:space="preserve">
<style type="text/css">
	.st0{fill:#FFFFFF;}
</style>
<g>
	<path class="st0" d="M668.2,934.7H72.8c-34.6,0-62.8-28.2-62.8-62.8V128.1c0-34.6,28.2-62.8,62.8-62.8h595.4
		c34.6,0,62.8,28.2,62.8,62.8v294h-29.4c-125.1,0-226.9,101.8-226.9,226.9c0,117.6,88.2,214.7,205.1,225.8l4.9,57.7
		C679.4,933.9,673.8,934.7,668.2,934.7z M72.8,124.2c-2.2,0-3.9,1.8-3.9,3.9v743.8c0,2.2,1.8,3.9,3.9,3.9h455.1
		c-13.3-10.2-25.7-21.6-37.2-34.1C442.5,789,415.9,720.5,415.9,649c0-76.3,29.7-148.1,83.7-202c47-47,107.4-75.6,172.6-82.2V128.1
		c0-2.2-1.8-3.9-3.9-3.9C668.3,124.2,72.8,124.2,72.8,124.2z"/>
	<path class="st0" d="M704.3,934.7c-9,0-18.2-0.4-27.4-1.3c-70.4-6.7-135.6-39.3-183.6-91.7c-48.2-52.8-74.8-121.2-74.8-192.8
		c0-76.3,29.7-148.1,83.7-202c54-54,125.7-83.7,202-83.7s148.1,29.7,202,83.7c54,54,83.7,125.7,83.7,202S960.3,797,906.3,851
		S780.6,934.7,704.3,934.7z M704.3,422.1c-125.1,0-226.9,101.8-226.9,226.9c0,117.6,88.2,214.7,205.1,225.8c7.3,0.7,14.6,1,21.8,1
		c125.1,0,226.9-101.8,226.9-226.9C931.1,523.9,829.4,422.1,704.3,422.1z"/>
	<path class="st0" d="M675.5,483.1h57.6v188.3h-57.6V483.1L675.5,483.1z"/>
	<path class="st0" d="M684.7,613.2h181.8v57.6H684.7V613.2z"/>
	<path class="st0" d="M117.5,267.4c0,26.2,21.3,47.5,47.5,47.5s47.5-21.3,47.5-47.5s-21.3-47.5-47.5-47.5S117.5,241.2,117.5,267.4
		L117.5,267.4z"/>
	<path class="st0" d="M266.1,250.2h357.5v34.5H266.1V250.2L266.1,250.2z"/>
	<path class="st0" d="M121,500c0,26.2,21.3,47.5,47.5,47.5S216,526.2,216,500s-21.3-47.5-47.5-47.5S121,473.8,121,500L121,500z"/>
	<path class="st0" d="M491.7,517.3H269.5v-34.5h236L491.7,517.3z"/>
	<path class="st0" d="M117.5,732.6c0,26.2,21.3,47.5,47.5,47.5s47.5-21.3,47.5-47.5s-21.3-47.5-47.5-47.5S117.5,706.3,117.5,732.6
		L117.5,732.6L117.5,732.6z"/>
	<path class="st0" d="M472.7,749.8H266.1v-34.5h191.1L472.7,749.8z"/>
</g>
</svg>
