<?xml version="1.0" encoding="utf-8"?>
<!-- Generator: Adobe Illustrator 21.1.0, SVG Export Plug-In . SVG Version: 6.00 Build 0)  -->
<svg version="1.1" id="Layer_1" xmlns="http://www.w3.org/2000/svg" xmlns:xlink="http://www.w3.org/1999/xlink" x="0px" y="0px"
	 viewBox="0 0 1000 1000" style="enable-background:new 0 0 1000 1000;" xml:space="preserve">
<style type="text/css">
	.st0{fill:#FFFFFF;}
</style>
<g>
	<path class="st0" d="M481.8,498.8c-18,16.8-162.5,156.9-162.5,156.9l38.6,38c0,0,128.4-118.5,147.6-136.4
		c4.8-4.4,12.8-12.8,27.8-12.8H971V484H518C504.8,484,492.3,489.2,481.8,498.8L481.8,498.8z"/>
	<path class="st0" d="M741.2,169.4c51.3,0,79.3-35.5,79.3-79.3S785,10.8,741.2,10.8s-79.3,35.5-79.3,79.3
		C661.8,133.8,697.3,169.4,741.2,169.4z"/>
	<path class="st0" d="M623.5,305.7h26.6l-39,140h260l-39-140h26.6l40.5,140H968l-55.2-185.8c-7.3-25.7-39.8-71.1-95.9-71.1H665.5
		c-56.2,0-88.6,45.5-95.9,71.1l-55.2,185.8h68.7L623.5,305.7L623.5,305.7z"/>
	<path class="st0" d="M398.6,438.4l-69.8-130.2c0,0-4.1-6.2-11.7-2.5c-6.8,3.3-3.8,11-3.8,11l23.2,44.2l14.4,27.5l-16.6-7.5
		c-29.4-13.3-45.7-18.9-52.2-21.9c-1.2-0.5-6.9-3.7-9.6-9.6c-7.7-17.3-40.7-100.6-48.1-119.1c-6.3-15.6-21.7-37.8-53.3-45.6
		c-36.1-8.9-72.4,13.8-81,50L40.9,442.2c-4.4,16.7-11.9,62-11.9,81.1s0.3,405.2,0.3,405.2c0.2,34.2,24.9,61.7,59.1,61.6
		c34.1-0.1,57.5-27.9,57.3-62c0,0,0-220.7-0.1-343.2l52.5-221.5c6.1,15,13.7,33.2,16.2,37.6c5.9,10.3,11.7,17.5,23.7,23.1
		c0,0,68.7,28.4,95.3,40.6c16,6.1,33.4,0.7,43.5-12.1l3.7-7.6l1.3,2.4c0,0,7.8,13.8,19.4,14.4C404.4,451.1,398.6,438.4,398.6,438.4
		L398.6,438.4z"/>
	<path class="st0" d="M292.5,89.3c0,43.8-35.5,79.4-79.4,79.4c-43.8,0-79.3-35.5-79.3-79.4c0-43.8,35.5-79.3,79.3-79.3
		C256.9,10,292.5,45.5,292.5,89.3z"/>
	<path class="st0" d="M328.2,607.1l154.6-143.9l-20.1-21.6L308.1,585.5L328.2,607.1z"/>
</g>
</svg>
