<?xml version="1.0" encoding="utf-8"?>
<!-- Generator: Adobe Illustrator 21.0.0, SVG Export Plug-In . SVG Version: 6.00 Build 0)  -->
<svg version="1.1" id="Calque_1" xmlns="http://www.w3.org/2000/svg" xmlns:xlink="http://www.w3.org/1999/xlink" x="0px" y="0px"
	 viewBox="0 0 1000 1000" style="enable-background:new 0 0 1000 1000;" xml:space="preserve">
<style type="text/css">
	.st0{fill:#FFFFFF;}
</style>
<g>
	<path class="st0" d="M36.9,506.2c-37.1,19.5-35.6,48,3.3,63.5l115.3,45.6c38.9,15.4,97.9,7,130.9-18.8L787,201.6
		c32.9-25.9,36.4-22.1,7.8,8.5L399.1,633.7c-28.7,30.5-20.2,68,18.8,83.1l13.5,5.3c39.1,15.1,102.8,40.5,141.6,56.3l127.9,52.1
		c38.8,15.7,70.6,28.8,70.7,29.1c0,0.2,0.2,1,0.4,1c0.2,0.1,9.4-33,20.3-73.4L987.1,70.9c11-40.4-10.3-57.6-47.4-38.1L36.9,506.2z"
		/>
	<path class="st0" d="M353.3,975c-2.3,6.8,78.8-117.5,78.8-117.5c23-35,10-76.8-28.8-92.6l-88.5-36.3c-38.7-15.9-57.3,2.7-41.3,41.5
		C273.5,770.2,355.6,968,353.3,975z"/>
	<path class="st0" d="M36.9,506.2c-37.1,19.5-35.6,48,3.3,63.5l115.3,45.6c38.9,15.4,97.9,7,130.9-18.8L787,201.6
		c32.9-25.9,36.4-22.1,7.8,8.5L399.1,633.7c-28.7,30.5-20.2,68,18.8,83.1l13.5,5.3c39.1,15.1,102.8,40.5,141.6,56.3l127.9,52.1
		c38.8,15.7,70.6,28.8,70.7,29.1c0,0.2,0.2,1,0.4,1c0.2,0.1,9.4-33,20.3-73.4L987.1,70.9c11-40.4-10.3-57.6-47.4-38.1L36.9,506.2z"
		/>
	<path class="st0" d="M353.3,975c-2.3,6.8,78.8-117.5,78.8-117.5c23-35,10-76.8-28.8-92.6l-88.5-36.3c-38.7-15.9-57.3,2.7-41.3,41.5
		C273.5,770.2,355.6,968,353.3,975z"/>
</g>
</svg>
