<?xml version="1.0" encoding="utf-8"?>
<!-- Generator: Adobe Illustrator 21.0.0, SVG Export Plug-In . SVG Version: 6.00 Build 0)  -->
<svg version="1.1" id="Calque_1" xmlns="http://www.w3.org/2000/svg" xmlns:xlink="http://www.w3.org/1999/xlink" x="0px" y="0px"
	 viewBox="0 0 1000 1000" style="enable-background:new 0 0 1000 1000;" xml:space="preserve">
<style type="text/css">
	.st0{fill:#FFFDFD;}
</style>
<g>
	<path class="st0" d="M45.9,990h570V393.1h-570L45.9,990L45.9,990z M91.2,443.9h99.9v99.3H91.2V443.9z M221.1,443.9H321v99.3h-99.9
		V443.9z M349.2,443.9h99.9v99.3h-99.9V443.9z M476.1,443.9h99.3v99.3h-99.3L476.1,443.9L476.1,443.9z M91.2,571.4h99.9v99.9H91.2
		V571.4z M221.1,571.4H321v99.9h-99.9V571.4z M91.2,698.9h99.9v99.3H91.2V698.9z M91.2,830.7h99.9V930H91.2V830.7z M671,345.3v536.3
		l22.1,8l261.1-674.2L422.8,10l-130,335.3H671z M805.2,212.3l93.2,36.2l-36.2,93.2L769,305.5L805.2,212.3z M568,120.3l93.2,36.2
		L625,249.6l-93.2-36.2L568,120.3z M687.5,166.3l92.6,36.2l-36.2,93.2l-92.5-35.6L687.5,166.3z M446.7,73.1l92.5,36.2l-35.6,93.2
		l-92.5-36.2L446.7,73.1z M400.7,192.6l92.6,36.2l-35.6,92.6l-93.2-34.9L400.7,192.6z M521.5,239.8l93.2,36.2l-27,69.3H519
		l-33.7-12.9L521.5,239.8z M354.1,312.2l86.4,33.1h-99.3L354.1,312.2z"/>
</g>
</svg>
